HIERARCHY
ROOT Root
{
  OFFSET 0.0 0.0 0.0
  CHANNELS 6 Xposition Yposition Zposition Zrotation Yrotation Xrotation
  JOINT Hips
  {
    OFFSET 0.0 100.0 0.0
    CHANNELS 6 Xposition Yposition Zposition Zrotation Yrotation Xrotation
    JOINT Spine1
    {
      OFFSET 5.003913 -0.037094 -0.013727
      CHANNELS 3 Zrotation Yrotation Xrotation
      JOINT Spine2
      {
        OFFSET 7.125363 -1e-06 0.0
        CHANNELS 3 Zrotation Yrotation Xrotation
        JOINT Chest
        {
          OFFSET 7.594027 1e-06 0.0
          CHANNELS 3 Zrotation Yrotation Xrotation
          JOINT Neck1
          {
            OFFSET 26.313086 -0.460272 -0.181672
            CHANNELS 3 Zrotation Yrotation Xrotation
            JOINT Neck2
            {
              OFFSET 8.045911 0.0 0.0
              CHANNELS 3 Zrotation Yrotation Xrotation
              JOINT Head
              {
                OFFSET 6.432774 0.0 0.0
                CHANNELS 3 Zrotation Yrotation Xrotation
                JOINT HeadEnd
                {
                  OFFSET 16.169773 0.06451 0.00362
                  CHANNELS 3 Zrotation Yrotation Xrotation
                }
                JOINT Jaw
                {
                  OFFSET 0.108741 3.12938 0.002639
                  CHANNELS 3 Zrotation Yrotation Xrotation
                }
                JOINT LeftEye
                {
                  OFFSET 4.45173 8.166359 3.206392
                  CHANNELS 3 Zrotation Yrotation Xrotation
                }
                JOINT RightEye
                {
                  OFFSET 4.436895 8.135758 -3.222429
                  CHANNELS 3 Zrotation Yrotation Xrotation
                }
              }
            }
          }
          JOINT LeftShoulder
          {
            OFFSET 23.218927 5.195579 1.621656
            CHANNELS 3 Zrotation Yrotation Xrotation
            JOINT LeftArm
            {
              OFFSET 15.902118 2e-06 -2e-06
              CHANNELS 3 Zrotation Yrotation Xrotation
              JOINT LeftForeArm
              {
                OFFSET 28.739307 0.0 -1e-06
                CHANNELS 3 Zrotation Yrotation Xrotation
                JOINT LeftHand
                {
                  OFFSET 27.093981 -4e-06 0.0
                  CHANNELS 3 Zrotation Yrotation Xrotation
                  JOINT LeftHandThumb1
                  {
                    OFFSET 2.276781 3.380274 0.83384
                    CHANNELS 3 Zrotation Yrotation Xrotation
                    JOINT LeftHandThumb2
                    {
                      OFFSET 4.705309 -1e-06 -1e-06
                      CHANNELS 3 Zrotation Yrotation Xrotation
                      JOINT LeftHandThumb3
                      {
                        OFFSET 2.798515 0.0 3e-06
                        CHANNELS 3 Zrotation Yrotation Xrotation
                        JOINT LeftHandThumbEnd
                        {
                          OFFSET 3.180793 4e-06 -4e-06
                          CHANNELS 3 Zrotation Yrotation Xrotation
                        }
                      }
                    }
                  }
                  JOINT LeftHandIndex1
                  {
                    OFFSET 3.247786 2.352677 0.137192
                    CHANNELS 3 Zrotation Yrotation Xrotation
                    JOINT LeftHandIndex2
                    {
                      OFFSET 6.367095 1e-06 0.0
                      CHANNELS 3 Zrotation Yrotation Xrotation
                      JOINT LeftHandIndex3
                      {
                        OFFSET 3.662364 0.0 0.0
                        CHANNELS 3 Zrotation Yrotation Xrotation
                        JOINT LeftHandIndex4
                        {
                          OFFSET 2.329242 4e-06 -4e-06
                          CHANNELS 3 Zrotation Yrotation Xrotation
                          JOINT LeftHandIndexEnd
                          {
                            OFFSET 2.767823 1e-06 0.0
                            CHANNELS 3 Zrotation Yrotation Xrotation
                          }
                        }
                      }
                    }
                  }
                  JOINT LeftHandMiddle1
                  {
                    OFFSET 3.163612 0.945023 -0.406112
                    CHANNELS 3 Zrotation Yrotation Xrotation
                    JOINT LeftHandMiddle2
                    {
                      OFFSET 6.276789 3e-06 0.0
                      CHANNELS 3 Zrotation Yrotation Xrotation
                      JOINT LeftHandMiddle3
                      {
                        OFFSET 4.35652 -1e-06 4e-06
                        CHANNELS 3 Zrotation Yrotation Xrotation
                        JOINT LeftHandMiddle4
                        {
                          OFFSET 2.996877 0.0 8e-06
                          CHANNELS 3 Zrotation Yrotation Xrotation
                          JOINT LeftHandMiddleEnd
                          {
                            OFFSET 2.323256 3e-06 -4e-06
                            CHANNELS 3 Zrotation Yrotation Xrotation
                          }
                        }
                      }
                    }
                  }
                  JOINT LeftHandRing1
                  {
                    OFFSET 2.882606 -0.309162 0.107445
                    CHANNELS 3 Zrotation Yrotation Xrotation
                    JOINT LeftHandRing2
                    {
                      OFFSET 6.033198 0.0 4e-06
                      CHANNELS 3 Zrotation Yrotation Xrotation
                      JOINT LeftHandRing3
                      {
                        OFFSET 4.350578 3e-06 0.0
                        CHANNELS 3 Zrotation Yrotation Xrotation
                        JOINT LeftHandRing4
                        {
                          OFFSET 2.651321 2e-06 -7e-06
                          CHANNELS 3 Zrotation Yrotation Xrotation
                          JOINT LeftHandRingEnd
                          {
                            OFFSET 1.937663 1e-06 -4e-06
                            CHANNELS 3 Zrotation Yrotation Xrotation
                          }
                        }
                      }
                    }
                  }
                  JOINT LeftHandPinky1
                  {
                    OFFSET 2.865315 -1.525436 0.575687
                    CHANNELS 3 Zrotation Yrotation Xrotation
                    JOINT LeftHandPinky2
                    {
                      OFFSET 5.54936 1e-06 -8e-06
                      CHANNELS 3 Zrotation Yrotation Xrotation
                      JOINT LeftHandPinky3
                      {
                        OFFSET 3.070974 0.0 -4e-06
                        CHANNELS 3 Zrotation Yrotation Xrotation
                        JOINT LeftHandPinky4
                        {
                          OFFSET 1.549672 1e-06 0.0
                          CHANNELS 3 Zrotation Yrotation Xrotation
                          JOINT LeftHandPinkyEnd
                          {
                            OFFSET 1.952123 0.0 0.0
                            CHANNELS 3 Zrotation Yrotation Xrotation
                          }
                        }
                      }
                    }
                  }
                }
              }
            }
          }
          JOINT RightShoulder
          {
            OFFSET 23.161716 5.296122 -1.380114
            CHANNELS 3 Zrotation Yrotation Xrotation
            JOINT RightArm
            {
              OFFSET -16.027195 -2e-06 1.1e-05
              CHANNELS 3 Zrotation Yrotation Xrotation
              JOINT RightForeArm
              {
                OFFSET -28.736639 4e-06 2e-06
                CHANNELS 3 Zrotation Yrotation Xrotation
                JOINT RightHand
                {
                  OFFSET -27.133619 6e-06 0.0
                  CHANNELS 3 Zrotation Yrotation Xrotation
                  JOINT RightHandThumb1
                  {
                    OFFSET -2.274328 -3.351035 -0.83067
                    CHANNELS 3 Zrotation Yrotation Xrotation
                    JOINT RightHandThumb2
                    {
                      OFFSET -4.703594 -3e-06 2e-06
                      CHANNELS 3 Zrotation Yrotation Xrotation
                      JOINT RightHandThumb3
                      {
                        OFFSET -2.794935 -4e-06 -3e-06
                        CHANNELS 3 Zrotation Yrotation Xrotation
                        JOINT RightHandThumbEnd
                        {
                          OFFSET -3.183852 4e-06 1e-06
                          CHANNELS 3 Zrotation Yrotation Xrotation
                        }
                      }
                    }
                  }
                  JOINT RightHandIndex1
                  {
                    OFFSET -3.253496 -2.33755 -0.127667
                    CHANNELS 3 Zrotation Yrotation Xrotation
                    JOINT RightHandIndex2
                    {
                      OFFSET -6.344434 0.0 0.0
                      CHANNELS 3 Zrotation Yrotation Xrotation
                      JOINT RightHandIndex3
                      {
                        OFFSET -3.654871 0.0 -8e-06
                        CHANNELS 3 Zrotation Yrotation Xrotation
                        JOINT RightHandIndex4
                        {
                          OFFSET -2.327586 -1e-06 0.0
                          CHANNELS 3 Zrotation Yrotation Xrotation
                          JOINT RightHandIndexEnd
                          {
                            OFFSET -2.770001 3e-06 8e-06
                            CHANNELS 3 Zrotation Yrotation Xrotation
                          }
                        }
                      }
                    }
                  }
                  JOINT RightHandMiddle1
                  {
                    OFFSET -3.168223 -0.944764 0.411762
                    CHANNELS 3 Zrotation Yrotation Xrotation
                    JOINT RightHandMiddle2
                    {
                      OFFSET -6.266691 -1e-06 -4e-06
                      CHANNELS 3 Zrotation Yrotation Xrotation
                      JOINT RightHandMiddle3
                      {
                        OFFSET -4.348901 0.0 0.0
                        CHANNELS 3 Zrotation Yrotation Xrotation
                        JOINT RightHandMiddle4
                        {
                          OFFSET -3.00024 2e-06 -4e-06
                          CHANNELS 3 Zrotation Yrotation Xrotation
                          JOINT RightHandMiddleEnd
                          {
                            OFFSET -2.321477 -4e-06 -4e-06
                            CHANNELS 3 Zrotation Yrotation Xrotation
                          }
                        }
                      }
                    }
                  }
                  JOINT RightHandRing1
                  {
                    OFFSET -2.885654 0.293261 -0.119232
                    CHANNELS 3 Zrotation Yrotation Xrotation
                    JOINT RightHandRing2
                    {
                      OFFSET -6.032835 -1e-06 -4e-06
                      CHANNELS 3 Zrotation Yrotation Xrotation
                      JOINT RightHandRing3
                      {
                        OFFSET -4.33881 0.0 -4e-06
                        CHANNELS 3 Zrotation Yrotation Xrotation
                        JOINT RightHandRing4
                        {
                          OFFSET -2.654903 -4e-06 -4e-06
                          CHANNELS 3 Zrotation Yrotation Xrotation
                          JOINT RightHandRingEnd
                          {
                            OFFSET -1.935122 0.0 4e-06
                            CHANNELS 3 Zrotation Yrotation Xrotation
                          }
                        }
                      }
                    }
                  }
                  JOINT RightHandPinky1
                  {
                    OFFSET -2.866241 1.503904 -0.60527
                    CHANNELS 3 Zrotation Yrotation Xrotation
                    JOINT RightHandPinky2
                    {
                      OFFSET -5.553177 -2e-06 0.0
                      CHANNELS 3 Zrotation Yrotation Xrotation
                      JOINT RightHandPinky3
                      {
                        OFFSET -3.062664 -1e-06 -4e-06
                        CHANNELS 3 Zrotation Yrotation Xrotation
                        JOINT RightHandPinky4
                        {
                          OFFSET -1.546529 2e-06 4e-06
                          CHANNELS 3 Zrotation Yrotation Xrotation
                          JOINT RightHandPinkyEnd
                          {
                            OFFSET -1.952341 0.0 -4e-06
                            CHANNELS 3 Zrotation Yrotation Xrotation
                          }
                        }
                      }
                    }
                  }
                }
              }
            }
          }
        }
      }
    }
    JOINT LeftLeg
    {
      OFFSET -8.443107 2.567604 10.043214
      CHANNELS 3 Zrotation Yrotation Xrotation
      JOINT LeftShin
      {
        OFFSET 43.229198 1e-06 -1e-06
        CHANNELS 3 Zrotation Yrotation Xrotation
        JOINT LeftFoot
        {
          OFFSET 42.298611 1e-06 1e-06
          CHANNELS 3 Zrotation Yrotation Xrotation
          JOINT LeftToeBase
          {
            OFFSET 14.165858 1e-06 0.0
            CHANNELS 3 Zrotation Yrotation Xrotation
            JOINT LeftToeEnd
            {
              OFFSET 6.7141 -0.234461 0.0
              CHANNELS 3 Zrotation Yrotation Xrotation
            }
          }
        }
      }
    }
    JOINT RightLeg
    {
      OFFSET -8.303923 2.592729 -10.047278
      CHANNELS 3 Zrotation Yrotation Xrotation
      JOINT RightShin
      {
        OFFSET -43.369682 0.0 1e-06
        CHANNELS 3 Zrotation Yrotation Xrotation
        JOINT RightFoot
        {
          OFFSET -42.260784 4e-06 2e-06
          CHANNELS 3 Zrotation Yrotation Xrotation
          JOINT RightToeBase
          {
            OFFSET -14.222245 -2e-06 -1e-06
            CHANNELS 3 Zrotation Yrotation Xrotation
            JOINT RightToeEnd
            {
              OFFSET -6.660062 0.232574 -2e-06
              CHANNELS 3 Zrotation Yrotation Xrotation
            }
          }
        }
      }
    }
  }
}
MOTION
Frames: 4
Frame Time: 0.03333333333333333
0.0 0.0 0.0 0.0 -0.0 0.0 -6.551805 10.606545 100.407028 173.066986 -79.985863 13.795147 -5.069572 -4.010144 -0.635884 -12.840982 -1.603493 -0.755503 21.197325 -1.798242 -1.526447 53.616478 8.446025 10.704698 -2.946557 -0.996387 2.719586 -2.166678 9.264732 9.156614 6e-06 -1e-06 -1e-06 -0.341914 -0.31225 -0.400426 2.399879 0.693017 -0.528217 2.248698 -1.231236 -0.373656 -56.930424 -67.690292 68.274544 68.867584 -51.821026 -89.787399 148.566254 1.620772 0.538188 15.602039 25.953156 55.859089 17.636627 -26.322725 52.411182 -19.46666 -14.395597 29.410381 -0.0 -8.774821 -2e-06 18.448292 -18.158051 4.92428 -0.609777 -1.795654 -3.889327 -4.807088 -11.046809 -2.93785 4e-06 -20.976019 -1e-06 -5.01997 -25.033558 -4.031881 6e-06 -0.0 1e-06 -10.634533 -5.686971 -3.565587 10.573272 -17.922951 -3.113901 2e-06 -13.821209 1e-06 -0.501777 -31.181507 -4.027017 -11.552155 -61.352352 8.468306 -13.982712 -7.150198 -2.875041 13.772727 -8.401492 -3.218241 0.347733 -34.211555 0.771653 -0.963028 -17.73337 2.621018 -0.0 -1e-06 -0.0 -17.346418 -20.095219 -4.201779 21.757557 -1.638374 3.866427 1e-06 -6.338824 0.0 -1.697589 -22.591749 -6.194007 -0.0 -3e-06 -2e-06 87.681892 -72.072319 114.758904 49.458847 -47.778973 -54.916981 150.373978 5.010898 -0.720822 104.38916 37.935028 111.785255 22.182112 -20.375895 49.933323 -16.701815 -16.743528 28.476536 -2e-06 -12.690601 0.0 14.586122 -16.972519 3.262799 -0.105918 -1.513857 -4.275882 -5.039042 -5.612873 -2.953557 5e-06 -11.02053 -2e-06 -6.1113 -15.895338 -3.840472 1e-06 -1e-06 1e-06 -10.283369 -5.680287 -4.341839 11.028296 -11.302411 -2.372633 -1.38427 -14.238588 -6.320122 -0.625438 -26.924198 -3.827604 -2.985708 -47.351559 -6.460542 -13.708524 -7.363477 -3.72094 18.14115 -14.052744 -3.242675 6e-06 -18.787277 -3e-06 -0.429712 -8.456043 2.555503 0.0 -1e-06 0.0 -15.923536 -20.09449 -5.473584 30.419214 -7.190826 1.735927 2e-06 -8.162929 -1e-06 -1.861901 -22.861479 -6.167943 -0.0 -3e-06 -2e-06 170.048325 -16.81333 -83.712257 14.505867 -25.991545 64.3834 -49.83976 23.793947 -1.099456 -7.157505 1.435626 2.832905 -0.999998 -0.0 0.0 3.444731 -22.496159 -143.585815 -9.828226 -14.48483 122.925522 -66.052727 16.3626 -11.45255 -6.391756 0.07796 2.280112 -1.000003 -0.0 0.0 
0.0 0.0 0.0 0.0 -0.0 0.0 -6.368228 10.50331 100.327492 172.07959 -79.960114 14.936896 -4.9318 -4.197559 -0.595483 -12.795088 -1.47324 -0.723544 20.893366 -1.751761 -1.299748 53.50737 8.856212 10.719641 -2.837589 -0.84224 2.810009 -1.188529 9.164452 9.126032 6e-06 -0.0 -2e-06 -0.345847 -0.29145 -0.382904 2.533943 0.790309 -0.543494 2.326249 -1.2818 -0.319803 -55.593674 -67.591133 66.800926 69.293419 -52.96122 -89.838303 148.250763 1.264814 0.434745 16.233606 26.642839 56.903099 17.636625 -26.322729 52.411182 -19.46666 -14.3956 29.410385 -0.0 -8.774822 -2e-06 18.320755 -18.134199 4.795094 -0.609776 -1.795653 -3.889328 -4.807089 -11.046809 -2.937849 3e-06 -20.976017 0.0 -5.019973 -25.03356 -4.03188 6e-06 -1e-06 -0.0 -10.634535 -5.68697 -3.565586 10.573275 -17.922951 -3.113901 2e-06 -13.821209 1e-06 -0.50178 -31.181505 -4.027016 -11.479745 -61.235596 8.375422 -13.982715 -7.150198 -2.875041 13.772731 -8.401493 -3.218242 0.347731 -34.211555 0.771655 -0.96303 -17.73337 2.621019 0.0 1e-06 0.0 -17.346422 -20.095221 -4.201778 21.757565 -1.638373 3.866427 1e-06 -6.338824 1e-06 -1.697592 -22.591751 -6.194006 -0.0 -3e-06 -2e-06 86.69458 -73.202034 116.091209 45.929909 -49.403156 -53.117226 150.792313 3.944658 -0.413426 106.288681 35.132938 113.383011 22.182112 -20.375898 49.933315 -16.701817 -16.74353 28.476534 -4e-06 -12.6906 1e-06 14.872879 -17.19582 3.176433 -0.10592 -1.513856 -4.275882 -5.039035 -5.612868 -2.953557 4e-06 -11.020527 -1e-06 -6.111297 -15.895334 -3.840469 2e-06 -1e-06 -1e-06 -10.283365 -5.680287 -4.341839 11.028291 -11.302409 -2.372633 -1.384267 -14.238579 -6.32012 -0.62544 -26.924191 -3.8276 -3.046113 -47.680206 -6.451058 -13.708524 -7.363474 -3.720939 18.14115 -14.052739 -3.242676 6e-06 -18.787271 -1e-06 -0.429712 -8.456041 2.555503 0.0 -0.0 1e-06 -15.923532 -20.094482 -5.473583 30.41921 -7.190823 1.735921 3e-06 -8.162927 -1e-06 -1.861902 -22.861469 -6.16794 -0.0 -2e-06 -1e-06 170.057892 -16.914179 -83.455925 16.278936 -28.005964 63.532589 -52.075626 22.887325 -1.023158 -7.06108 1.463311 2.77037 -0.999997 -0.0 0.0 3.63255 -22.861231 -146.316818 -9.804873 -12.747869 125.964317 -66.85096 16.006676 -11.794463 -6.548448 0.089757 2.229162 -1.000002 0.0 0.0 
0.0 0.0 0.0 0.0 -0.0 0.0 -6.221731 10.464067 100.268005 171.510605 -79.975044 15.629054 -4.650927 -4.339861 -0.602732 -12.740018 -1.410793 -0.722261 20.639095 -1.641352 -1.157863 53.145638 9.16693 10.506798 -2.700951 -0.629894 2.865069 -0.269894 9.207253 9.267249 9e-06 1e-06 0.0 -0.352762 -0.300772 -0.396185 2.60286 0.855453 -0.596701 2.394452 -1.362109 -0.291435 -54.390034 -67.51857 65.475693 69.426041 -54.181843 -89.446312 148.342209 1.034445 0.325366 17.251377 27.15712 57.914665 17.636639 -26.322737 52.41119 -19.466665 -14.395597 29.410389 -1e-06 -8.774822 -2e-06 18.22406 -18.050941 4.614114 -0.609777 -1.795654 -3.889328 -4.807088 -11.046813 -2.93785 5e-06 -20.976019 -0.0 -5.019969 -25.03356 -4.031879 5e-06 -1e-06 0.0 -10.634533 -5.686967 -3.565588 10.573275 -17.922955 -3.113901 3e-06 -13.821211 1e-06 -0.501777 -31.181511 -4.027015 -11.235064 -60.927883 8.096477 -13.982714 -7.150198 -2.875043 13.77273 -8.401494 -3.218241 0.347735 -34.211555 0.771656 -0.963028 -17.73337 2.621021 0.0 -1e-06 0.0 -17.346416 -20.095217 -4.201783 21.757557 -1.638376 3.866429 2e-06 -6.338824 1e-06 -1.697589 -22.591745 -6.194006 0.0 -4e-06 -2e-06 84.226974 -74.238701 119.050156 42.545303 -51.480343 -51.348316 150.740845 2.471134 -0.010358 108.625656 32.868031 115.026245 22.182106 -20.375889 49.933319 -16.701811 -16.74353 28.47653 1e-06 -12.690601 -0.0 15.222902 -17.432394 3.095679 -0.10592 -1.513857 -4.275881 -5.03904 -5.61287 -2.953556 4e-06 -11.020525 -2e-06 -6.111298 -15.89533 -3.84047 0.0 -0.0 -1e-06 -10.283367 -5.680288 -4.341837 11.028292 -11.302403 -2.372634 -1.384268 -14.238577 -6.320121 -0.625438 -26.924183 -3.827599 -3.140552 -48.213688 -6.348155 -13.708522 -7.363477 -3.720938 18.141146 -14.052736 -3.242675 4e-06 -18.787271 -1e-06 -0.429712 -8.456039 2.555503 -0.0 -0.0 -0.0 -15.923534 -20.094482 -5.473584 30.419207 -7.190821 1.735926 3e-06 -8.162927 -1e-06 -1.861903 -22.861467 -6.167942 0.0 -2e-06 -1e-06 169.868332 -17.101482 -83.394073 17.706757 -29.761921 63.147579 -53.951408 22.033035 -0.988904 -7.012866 1.499616 2.691794 -0.999998 0.0 0.0 3.358105 -23.222826 -147.69426 -9.825114 -11.775095 127.575706 -67.596603 15.400895 -12.072343 -6.914656 0.091161 2.197599 -1.000002 -0.0 -0.0 
0.0 0.0 0.0 0.0 -0.0 0.0 -6.083569 10.478222 100.19696 170.971146 -79.995918 16.275612 -4.36041 -4.448615 -0.652483 -12.65787 -1.408645 -0.769065 20.562826 -1.497695 -1.068325 52.742962 9.356328 10.195012 -2.58169 -0.502002 2.860218 0.580144 9.266003 9.256119 6e-06 1e-06 -0.0 -0.356081 -0.305053 -0.399317 2.615168 0.912292 -0.629805 2.429424 -1.426645 -0.262717 -53.273647 -67.46093 64.369865 69.686722 -55.100136 -88.90921 148.694672 1.079935 0.303219 18.493494 27.474285 59.015594 17.636625 -26.322725 52.411182 -19.466654 -14.395597 29.410378 -1e-06 -8.774821 -2e-06 18.239016 -17.878832 4.425473 -0.609776 -1.795656 -3.889327 -4.807087 -11.046807 -2.937849 5e-06 -20.976011 -1e-06 -5.019969 -25.033548 -4.031879 6e-06 -3e-06 0.0 -10.634532 -5.686968 -3.565587 10.573274 -17.922947 -3.113901 3e-06 -13.821203 1e-06 -0.501777 -31.181498 -4.027013 -10.92745 -60.614079 7.812292 -13.982712 -7.150196 -2.875041 13.77273 -8.40149 -3.218241 0.347735 -34.21154 0.771655 -0.963028 -17.733364 2.62102 0.0 -1e-06 -0.0 -17.346413 -20.095211 -4.20178 21.757555 -1.638375 3.866427 1e-06 -6.338822 1e-06 -1.697589 -22.591738 -6.194005 -0.0 -3e-06 -2e-06 81.328087 -74.984062 122.388535 40.368275 -53.523216 -50.256088 150.381363 1.052425 0.356489 110.577919 31.463793 116.206726 22.182108 -20.375895 49.933319 -16.701817 -16.743534 28.476534 -1e-06 -12.690602 1e-06 15.611832 -17.652777 3.059514 -0.105919 -1.513857 -4.275882 -5.039038 -5.61287 -2.953557 5e-06 -11.020523 -2e-06 -6.1113 -15.895332 -3.840471 0.0 0.0 1e-06 -10.283369 -5.680288 -4.341838 11.028296 -11.302405 -2.372633 -1.384268 -14.238577 -6.320122 -0.625437 -26.924191 -3.827602 -3.205557 -48.89082 -6.193039 -13.708525 -7.363476 -3.720938 18.14115 -14.052737 -3.242676 7e-06 -18.787271 -2e-06 -0.429711 -8.456042 2.555504 0.0 1e-06 -0.0 -15.923534 -20.094482 -5.473585 30.41921 -7.190824 1.735925 3e-06 -8.162926 -1e-06 -1.861902 -22.861467 -6.167941 0.0 -3e-06 -1e-06 169.502716 -17.356058 -83.637016 18.544678 -30.973713 63.35947 -55.549648 21.727007 -0.944629 -6.88621 1.552238 2.617202 -0.999999 -0.0 0.0 2.924647 -23.565346 -148.722321 -10.029934 -11.309634 128.915771 -68.131203 14.936741 -12.208864 -7.379308 0.087057 2.180835 -1.000003 -0.0 0.0 
